<?xml version="1.0" encoding="utf-8"?>
<!-- Generator: Adobe Illustrator 19.1.0, SVG Export Plug-In . SVG Version: 6.00 Build 0)  -->
<svg version="1.1" id="Layer_1" xmlns="http://www.w3.org/2000/svg" xmlns:xlink="http://www.w3.org/1999/xlink" x="0px" y="0px"
	 viewBox="0 0 135 135" enable-background="new 0 0 135 135" xml:space="preserve">
<rect fill="#D3D3D3" width="135" height="135"/>
<g>
	<path fill="#FFFFFF" d="M105.831,134.935v-19.498c0-4.447-2.792-8.471-7.018-10.013L79.283,98.23
		c-2.779-1.013-4.453-3.659-4.453-6.583v-3.632l-6.272,1.331l-4.692-0.331l-3.036-1.131v3.762c0,2.924-1.841,5.569-4.62,6.583
		l-19.518,7.194c-4.227,1.542-6.862,5.566-6.862,10.013v19.498H105.831z"/>
	<path fill="#727272" d="M29.831,134.935v-19.498c0-4.447,2.654-8.471,6.881-10.013l19.524-7.194
		c2.779-1.013,4.596-3.659,4.596-6.583v-5.315c0-1.096-0.889-1.985-2-1.985s-2,0.889-2,1.985v5.315c0,1.27-0.725,2.419-1.932,2.859
		l-19.589,7.193c-5.799,2.116-9.479,7.635-9.479,13.736v19.498H29.831z"/>
	<path fill="#727272" d="M79.365,98.23l19.409,7.194c4.227,1.542,7.057,5.565,7.057,10.013v19.498h4v-19.498
		c0-6.1-3.713-11.62-9.512-13.736l-19.715-7.193c-1.207-0.44-1.773-1.589-1.773-2.859v-5.315c0-1.096-0.889-1.985-2-1.985
		c-1.111,0-2,0.889-2,1.985v5.315C74.831,94.571,76.586,97.217,79.365,98.23z"/>
	<polygon fill="#FFFFFF" points="43.549,54.693 39.654,56.219 41.349,67.444 45.101,70.032 49.704,77.624 54.317,82.867 
		61.34,87.225 67.101,88.392 73.06,87.471 78.049,84.984 83.284,80.324 89.351,72.657 90.788,68.594 93.855,67.28 95.435,62.594 
		95.101,56.094 92.038,54.407 87.538,57.719 85.476,40.022 50.726,40.022 47.101,57.157 	"/>
	<path fill="#B5B5B5" d="M47.287,56.276l3.248-15.351l1.733-1.289h25.417l7.917-0.583l1,1.833l0.461,12.745l1.122,1.139l1.333-1.3
		c0,0,1.195-2.917,0.931-3.25c-0.264-0.333,1.523-9,1.523-9l-0.37-7.417l-3.75-3.417l-2.583-2.167c0,0,1.583-4.917,1.583-5.167
		s-6.5,1.833-9.917,1c-3.417-0.833-16-2-16-2l-5.583,1l-2.583,3.333l-1.083,3.75l-5,2.667l-2.833,3.333v6.917L47.287,56.276z"/>
	<path fill="none" stroke="#727272" stroke-width="4" stroke-linecap="round" stroke-linejoin="round" stroke-miterlimit="10" d="
		M90.401,54.541L90.401,54.541l1.877,0.233c1.973,0.245,3.374,2.043,3.129,4.016l-0.805,6.484c-0.315,2.537-2.627,4.338-5.164,4.023
		h0c-2.823,9.42-11.555,19.096-21.894,19.096h0c-10.339,0-19.07-9.676-21.894-19.096h0c-2.537,0.315-4.849-1.486-5.164-4.023
		l-0.805-6.484c-0.245-1.973,1.156-3.771,3.129-4.016l2.137-0.233l0.082-0.44c-0.628-4.741-1.484-9.504-1.767-14.278l-0.133-2.235
		c-0.146-2.464,1.195-4.777,3.407-5.873l4.422-2.192c0,0,1.125-8.375,9.375-8.375s22.625,2.625,25.875,0.75s0,6.5,0,6.5l4.119,2.963
		c1.756,1.263,2.719,3.357,2.536,5.512l-0.206,2.419C92.22,44.416,91.467,49.509,90.401,54.541z"/>
	<path fill="none" stroke="#727272" stroke-width="4" stroke-linecap="round" stroke-linejoin="round" stroke-miterlimit="10" d="
		M44.687,52.172l1.646,7.225c0,0,2.675-2.875,3.8-19.375c28.875,0,35.82,0,35.82,0s0.089,15.665,1.98,18.975
		c3.068-4.856,2.468-5.35,2.468-5.35"/>
</g>
</svg>
